<?xml version="1.0" encoding="UTF-8" standalone="no"?>
<!-- Created with Inkscape (http://www.inkscape.org/) -->

<svg
   width="64pt"
   height="64pt"
   viewBox="0 0 22.577778 22.577778"
   version="1.1"
   id="svg831"
   inkscape:version="1.1.1 (3bf5ae0d25, 2021-09-20)"
   sodipodi:docname="EXPORT.svg"
   xmlns:inkscape="http://www.inkscape.org/namespaces/inkscape"
   xmlns:sodipodi="http://sodipodi.sourceforge.net/DTD/sodipodi-0.dtd"
   xmlns="http://www.w3.org/2000/svg"
   xmlns:svg="http://www.w3.org/2000/svg"
   xmlns:rdf="http://www.w3.org/1999/02/22-rdf-syntax-ns#"
   xmlns:cc="http://creativecommons.org/ns#"
   xmlns:dc="http://purl.org/dc/elements/1.1/">
  <defs
     id="defs825">
    <pattern
       id="EMFhbasepattern"
       patternUnits="userSpaceOnUse"
       width="6"
       height="6"
       x="0"
       y="0" />
    <pattern
       id="EMFhbasepattern-9"
       patternUnits="userSpaceOnUse"
       width="6"
       height="6"
       x="0"
       y="0" />
    <pattern
       id="EMFhbasepattern-0"
       patternUnits="userSpaceOnUse"
       width="6"
       height="6"
       x="0"
       y="0" />
    <pattern
       id="EMFhbasepattern-7"
       patternUnits="userSpaceOnUse"
       width="6"
       height="6"
       x="0"
       y="0" />
    <pattern
       id="EMFhbasepattern-2"
       patternUnits="userSpaceOnUse"
       width="6"
       height="6"
       x="0"
       y="0" />
    <pattern
       id="EMFhbasepattern-98"
       patternUnits="userSpaceOnUse"
       width="6"
       height="6"
       x="0"
       y="0" />
    <pattern
       id="EMFhbasepattern-6"
       patternUnits="userSpaceOnUse"
       width="6"
       height="6"
       x="0"
       y="0" />
    <pattern
       id="EMFhbasepattern-01"
       patternUnits="userSpaceOnUse"
       width="6"
       height="6"
       x="0"
       y="0" />
    <pattern
       id="EMFhbasepattern-07"
       patternUnits="userSpaceOnUse"
       width="6"
       height="6"
       x="0"
       y="0" />
    <pattern
       id="EMFhbasepattern-8"
       patternUnits="userSpaceOnUse"
       width="6"
       height="6"
       x="0"
       y="0" />
    <pattern
       id="EMFhbasepattern-4"
       patternUnits="userSpaceOnUse"
       width="6"
       height="6"
       x="0"
       y="0" />
    <pattern
       id="EMFhbasepattern-40"
       patternUnits="userSpaceOnUse"
       width="6"
       height="6"
       x="0"
       y="0" />
    <pattern
       id="EMFhbasepattern-08"
       patternUnits="userSpaceOnUse"
       width="6"
       height="6"
       x="0"
       y="0" />
    <pattern
       id="EMFhbasepattern-04"
       patternUnits="userSpaceOnUse"
       width="6"
       height="6"
       x="0"
       y="0" />
    <pattern
       id="EMFhbasepattern-014"
       patternUnits="userSpaceOnUse"
       width="6"
       height="6"
       x="0"
       y="0" />
    <pattern
       id="EMFhbasepattern-27"
       patternUnits="userSpaceOnUse"
       width="6"
       height="6"
       x="0"
       y="0" />
    <pattern
       id="EMFhbasepattern-09"
       patternUnits="userSpaceOnUse"
       width="6"
       height="6"
       x="0"
       y="0" />
    <pattern
       id="EMFhbasepattern-5"
       patternUnits="userSpaceOnUse"
       width="6"
       height="6"
       x="0"
       y="0" />
    <pattern
       id="EMFhbasepattern-018"
       patternUnits="userSpaceOnUse"
       width="6"
       height="6"
       x="0"
       y="0" />
  </defs>
  <sodipodi:namedview
     id="base"
     pagecolor="#ffffff"
     bordercolor="#666666"
     borderopacity="1.0"
     inkscape:pageopacity="0.0"
     inkscape:pageshadow="2"
     inkscape:zoom="9.1757813"
     inkscape:cx="31.822903"
     inkscape:cy="42.666667"
     inkscape:document-units="pt"
     inkscape:current-layer="layer1"
     showgrid="false"
     units="pt"
     inkscape:window-width="1920"
     inkscape:window-height="1001"
     inkscape:window-x="-9"
     inkscape:window-y="-9"
     inkscape:window-maximized="1"
     inkscape:pagecheckerboard="true"
     inkscape:showpageshadow="false"
     inkscape:object-paths="true"
     inkscape:snap-intersection-paths="true"
     inkscape:snap-smooth-nodes="true"
     inkscape:snap-midpoints="true"
     showguides="true"
     inkscape:snap-bbox="true"
     inkscape:bbox-nodes="true"
     inkscape:snap-nodes="false"
     inkscape:snap-global="true">
    <inkscape:grid
       type="xygrid"
       id="grid1378" />
    <sodipodi:guide
       position="0.97013831,21.607643"
       orientation="78.000048,0"
       id="guide1380"
       inkscape:locked="false" />
    <sodipodi:guide
       position="0.97013831,0.97013129"
       orientation="0,78.000005"
       id="guide1382"
       inkscape:locked="false" />
    <sodipodi:guide
       position="21.607639,0.97013129"
       orientation="-78.000048,0"
       id="guide1384"
       inkscape:locked="false" />
    <sodipodi:guide
       position="21.607639,21.607643"
       orientation="0,-78.000005"
       id="guide1386"
       inkscape:locked="false" />
  </sodipodi:namedview>
  <metadata
     id="metadata828">
    <rdf:RDF>
      <cc:Work
         rdf:about="">
        <dc:format>image/svg+xml</dc:format>
        <dc:type
           rdf:resource="http://purl.org/dc/dcmitype/StillImage" />
      </cc:Work>
    </rdf:RDF>
  </metadata>
  <g
     inkscape:label="Icon"
     inkscape:groupmode="layer"
     id="layer1"
     transform="translate(0,-274.42223)">
    <g
       id="g23427"
       style="display:inline;stroke-width:0.795549"
       transform="matrix(1.2569932,0,0,1.2569932,77.330252,-38.582355)">
      <g
         id="g108927"
         style="display:inline;stroke-width:0.795549">
        <path
           style="color:#000000;fill:#c8dae5;stroke-width:0.795549;stroke-linecap:round;stroke-linejoin:round;-inkscape-stroke:none"
           d="m -46.814119,254.90944 c -0.144653,5.1e-4 -0.262093,0.11708 -0.263672,0.26172 l -0.01563,0.92693 c -0.0017,0.1477 0.11792,0.26816 0.265625,0.26758 h 0.60995 c 0.42389,0 0.75,-0.23798 0.75,-0.66131 0,-0.42333 -0.32611,-0.79492 -0.75,-0.79492 z"
           id="path373792"
           sodipodi:nodetypes="ccccsssc" />
        <path
           style="color:#000000;fill:#c8dae5;stroke-width:0.795549;stroke-linecap:round;stroke-linejoin:round;-inkscape-stroke:none"
           d="m -53.544588,254.67962 c -0.02714,-2.3e-4 -0.05415,0.004 -0.08008,0.0117 l -0.851563,0.26368 c -0.110886,0.0347 -0.186152,0.13771 -0.185547,0.2539 v 0.89309 c 2.5e-4,0.11547 0.07535,0.21745 0.185547,0.25195 l 0.851563,0.26562 c 0.02593,0.008 0.05295,0.0119 0.08008,0.0117 h 0.851562 c 0.02648,3e-5 0.05282,-0.004 0.07813,-0.0117 l 0.853516,-0.26562 c 0.110198,-0.0345 0.185297,-0.13648 0.185547,-0.25195 v -0.89309 c 6.05e-4,-0.11619 -0.07466,0.0908 -0.185547,-0.2539 l -0.853516,-0.26368 c -0.02531,-0.008 -0.05165,-0.0117 -0.07813,-0.0117 z"
           id="path373796"
           sodipodi:nodetypes="ccccccccccccccccc" />
        <path
           id="path373798"
           style="color:#000000;fill:#b0c3d3;fill-opacity:1;stroke-width:0.795549;stroke-linecap:round;stroke-linejoin:round;-inkscape-stroke:none"
           d="m -53.584751,254.7424 c -0.02713,-3.3e-4 -0.803751,0.26977 -0.803751,0.26977 -0.110814,0.0347 -0.186051,0.13761 -0.185517,0.25373 v 0.007 c 0.01931,-0.005 0.03907,-0.007 0.05891,-0.007 0.68315,-0.0883 0.983805,0.0777 1.623014,0.27546 0.110818,0.0347 0.186056,0.13761 0.185518,0.25374 l 0.0096,0.8267 c 0.0064,-0.001 0.863259,-0.26762 0.863259,-0.26762 0.110267,-0.0345 0.185372,-0.13663 0.185517,-0.25218 v -0.83593 c 5.34e-4,-0.11612 -0.0747,-0.21902 -0.185517,-0.25373 l -0.892709,-0.26977 c -0.02529,-0.008 -0.858289,-1.7e-4 -0.858289,-1.7e-4 z"
           sodipodi:nodetypes="ccccccccccccccc" />
        <path
           style="color:#000000;fill:#b0c3d3;stroke-width:0.795549;stroke-linecap:round;stroke-linejoin:round;-inkscape-stroke:none"
           d="m -55.302401,254.26411 c -0.145408,5.1e-4 -0.263156,0.11826 -0.263672,0.26367 v 2.36718 c -5.64e-4,0.14617 0.117499,0.26511 0.263672,0.26563 h 0.375 c 0.435245,0 0.792969,-0.35968 0.792969,-0.79492 v -1.30859 c 0,-0.43524 -0.357724,-0.79297 -0.792969,-0.79297 z"
           id="path373800"
           sodipodi:nodetypes="ccccssssc" />
        <path
           style="color:#000000;fill:#c8dae5;stroke-width:0.795549;stroke-linecap:round;stroke-linejoin:round;-inkscape-stroke:none"
           d="m -59.997713,254.77778 c -0.42389,0 -0.75,0.37159 -0.75,0.79492 0,0.42333 0.32611,0.79297 0.75,0.79297 h 0.572265 a 0.26460996,0.26460996 0 0 0 0.265625,-0.25977 l 0.01367,-1.05859 a 0.26460996,0.26460996 0 0 0 -0.263672,-0.26953 z"
           id="path373802" />
        <path
           style="color:#000000;fill:#3a4d5c;stroke-width:0.795549;stroke-linecap:round;stroke-linejoin:round;-inkscape-stroke:none"
           d="m -58.939119,254.38129 c -0.423872,0 -0.750001,0.37161 -0.75,0.79492 v 0.79297 c 0,0.42331 0.326122,0.79297 0.75,0.79297 h 0.484375 a 0.26460996,0.26460996 0 0 0 0.263671,-0.26367 v -1.85156 a 0.26460996,0.26460996 0 0 0 -0.263671,-0.26563 z"
           id="path373806" />
        <path
           id="path376497"
           style="color:#000000;fill:#97abba;fill-opacity:1;stroke-width:3.0068;stroke-linecap:round;stroke-linejoin:round;-inkscape-stroke:none"
           d="m -208.63477,-89.410156 c -0.49058,0 -0.94851,0.06755 -1.3789,0.1875 v 1.644531 a 1.0001006,1.0001006 0 0 0 0.99609,1.003906 h 1.41797 c 1.4346,0 2.64707,-1.03312 2.93359,-2.388672 -0.64733,-0.285395 -1.3642,-0.447265 -2.13086,-0.447265 z"
           transform="matrix(0.26458334,0,0,0.26458334,0,280.06666)" />
        <path
           style="color:#000000;fill:#3a4d5c;stroke-width:0.795549;stroke-linecap:round;stroke-linejoin:round;-inkscape-stroke:none"
           d="m -57.728182,253.19184 c -0.557833,0 -0.992187,0.48719 -0.992187,1.05664 v 2.64648 c 0,0.56945 0.43435,1.0586 0.992187,1.0586 h 0.244141 c 0.423889,0 0.748046,-0.36964 0.748047,-0.79297 v -3.17578 c 0,-0.42333 -0.324158,-0.79297 -0.748047,-0.79297 z"
           id="path373812" />
        <path
           style="color:#000000;fill:#3a4d5c;stroke-width:0.795549;stroke-linecap:round;stroke-linejoin:round;-inkscape-stroke:none"
           d="m -47.782869,254.5861 c -0.146936,-5.7e-4 -0.266193,0.11869 -0.265625,0.26563 v 1.64675 c 5.18e-4,0.14617 0.119455,0.26423 0.265625,0.26367 h 0.484375 c 0.423877,0 0.75,-0.36966 0.75,-0.79297 v -0.58816 c 0,-0.42331 -0.326129,-0.79492 -0.75,-0.79492 z"
           id="path373814"
           sodipodi:nodetypes="ccccssssc" />
        <path
           style="color:#000000;fill:#3a4d5c;stroke-width:0.795549;stroke-linecap:round;stroke-linejoin:round;-inkscape-stroke:none"
           d="m -48.753573,253.33082 c -0.423889,0 -0.75,0.36964 -0.75,0.79297 v 3.0368 c 0,0.42333 0.326111,0.79297 0.75,0.79297 h 0.242188 c 0.557838,0 0.992187,-0.48915 0.992187,-1.0586 v -2.5075 c 0,-0.56945 -0.434354,-1.05664 -0.992187,-1.05664 z"
           id="path373818"
           sodipodi:nodetypes="sssssssss" />
        <path
           id="path376507"
           style="color:#000000;fill:#143441;fill-opacity:1;stroke-width:3.0068;stroke-linecap:round;stroke-linejoin:round;-inkscape-stroke:none"
           d="m -187.09961,-89.386716 v 2.8125 c 0,1.599988 1.23188,2.998047 2.83399,2.998047 h 0.91601 c 1.64653,0 3.00776,-1.127427 3.52539,-2.646484 -1.08555,-1.787551 -2.69914,-3.1875 -4.97461,-3.1875 -0.75511,-0.01627 -1.57867,0.0039 -2.30078,0.02344 z"
           transform="matrix(0.26458334,0,0,0.26458334,0,280.06666)"
           sodipodi:nodetypes="csssccc" />
        <path
           style="color:#000000;fill:#b0c3d3;stroke-width:0.795549;stroke-linecap:round;stroke-linejoin:round;-inkscape-stroke:none"
           d="m -51.312166,254.22273 c -0.435245,0 -0.792969,0.35773 -0.792969,0.79297 v 1.34997 c 0,0.43524 0.357724,0.79492 0.792969,0.79492 h 0.375 c 0.146936,5.6e-4 0.266193,-0.11869 0.265625,-0.26563 v -2.40856 c -5.18e-4,-0.14617 -0.119455,-0.26423 -0.265625,-0.26367 z"
           id="path373820"
           sodipodi:nodetypes="ssssccccs" />
        <path
           id="path373822"
           style="color:#000000;fill:#143441;fill-opacity:1;stroke-width:0.795549;stroke-linecap:round;stroke-linejoin:round;-inkscape-stroke:none"
           d="m -48.753776,253.42597 c -0.423889,0 -0.749827,0.36939 -0.749827,0.79272 v 2.94196 c 0,0.42333 0.325938,0.79272 0.749827,0.79272 h 0.242361 c 0.03632,0 0.0723,-0.002 0.107487,-0.006 -0.02681,-0.0815 -0.04134,-0.16817 -0.04134,-0.25735 v -2.94197 c 0,-0.49675 0.381335,-0.79271 0.792716,-0.79271 -0.170056,-0.31294 -0.487082,-0.52917 -0.858864,-0.52917 z"
           sodipodi:nodetypes="csssscscccc" />
        <path
           style="color:#000000;fill:#3a4d5c;stroke-width:0.795549;stroke-linecap:round;stroke-linejoin:round;-inkscape-stroke:none"
           d="m -50.450838,252.57864 c -0.42389,0 -0.75,0.37159 -0.75,0.79492 v 4.71281 c 0,0.42333 0.32611,0.79297 0.75,0.79297 h 0.484375 c 0.557837,0 0.992187,-0.48915 0.992187,-1.05859 v -4.18352 c 0,-0.56945 -0.434354,-1.05859 -0.992187,-1.05859 z"
           id="path373826"
           sodipodi:nodetypes="sssssssss" />
        <path
           id="path376502"
           style="color:#000000;fill:#143441;fill-opacity:1;stroke-width:3.0068;stroke-linecap:round;stroke-linejoin:round;-inkscape-stroke:none"
           d="m -186.62891,-89.410156 c -3.13363,0 -5.45507,2.679123 -5.45507,5.625 v 1.720703 c -0.36832,0.172237 -0.70623,0.338803 -1.01758,0.539062 0.49154,0.855127 1.37858,1.447266 2.42187,1.447266 h 1.83008 c 2.10836,0 3.75,-1.847786 3.75,-4 v -5.332031 z"
           transform="matrix(0.26458334,0,0,0.26458334,0,280.06666)" />
        <path
           id="path373828"
           style="color:#000000;fill:#143441;fill-opacity:1;stroke-width:0.795549;stroke-linecap:round;stroke-linejoin:round;-inkscape-stroke:none"
           d="m -57.728425,253.1919 c -0.371755,0 -0.688281,0.21627 -0.858345,0.52917 0.696051,0 0.792198,0.35754 0.792198,0.79272 v 3.17603 c 0,0.0892 -0.01415,0.17588 -0.04082,0.25735 0.03516,0.004 0.07068,0.006 0.106968,0.006 h 0.24443 c 0.423889,0 0.747758,-0.36939 0.747758,-0.79272 v -3.17603 c 0,-0.42333 -0.323869,-0.79272 -0.747758,-0.79272 z"
           sodipodi:nodetypes="cccscsssscc" />
        <path
           style="color:#000000;fill:#3a4d5c;stroke-width:0.795549;stroke-linecap:round;stroke-linejoin:round;-inkscape-stroke:none"
           d="m -56.273104,252.26411 c -0.557833,0 -0.992187,0.48914 -0.992187,1.05859 v 4.49805 c 0,0.56944 0.434349,1.05859 0.992187,1.05859 h 0.486328 c 0.42389,0 0.75,-0.36964 0.75,-0.79297 v -5.02734 c 0,-0.42333 -0.32611,-0.79492 -0.75,-0.79492 z"
           id="path373830" />
        <path
           id="path375437"
           style="color:#000000;fill:#143441;fill-opacity:1;stroke-width:3.0068;stroke-linecap:round;stroke-linejoin:round;-inkscape-stroke:none"
           d="m -208.63477,-89.410156 c -2.40851,0 -4.07551,1.566848 -5.16015,3.505859 h -0.33985 c -0.85355,0 -1.62035,0.190486 -2.30078,0.521485 v 1.304687 c 0,2.152214 1.64164,4 3.75,4 h 1.83789 c 1.60211,0 2.83399,-1.396106 2.83399,-2.996094 v -6.335937 z"
           transform="matrix(0.26458334,0,0,0.26458334,0,280.06666)" />
        <path
           style="color:#000000;fill:#c8dae5;stroke-width:0.795549;stroke-linecap:round;stroke-linejoin:round;-inkscape-stroke:none"
           d="m -45.742187,259.61719 a 0.26460996,0.26460996 0 0 0 -0.263672,0.26172 l -0.01563,1.05859 a 0.26460996,0.26460996 0 0 0 0.265625,0.26758 h 0.675781 c 0.42389,0 0.75,-0.36964 0.75,-0.79297 0,-0.42333 -0.32611,-0.79492 -0.75,-0.79492 z"
           id="path286514" />
        <path
           style="color:#000000;fill:#c8dae5;stroke-width:0.795549;stroke-linecap:round;stroke-linejoin:round;-inkscape-stroke:none"
           d="m -52.472656,259.4114 c -0.02714,-2.3e-4 -0.05414,0.004 -0.08008,0.0117 l -0.851563,0.26368 c -0.110886,0.0347 -0.186152,0.13771 -0.185547,0.2539 v 0.8767 c 2.5e-4,0.11547 0.07535,0.21744 0.185547,0.25195 l 0.851563,0.26562 c 0.02594,0.008 0.05295,0.0119 0.08008,0.0117 h 0.851562 c 0.02648,3e-5 0.05282,-0.004 0.07813,-0.0117 l 0.853516,-0.26562 c 0.110198,-0.0345 0.185297,-0.13648 0.185547,-0.25195 v -0.8767 c 6.05e-4,-0.11619 -0.07466,-0.21919 -0.185547,-0.2539 l -0.853516,-0.26368 c -0.02531,-0.008 -0.05165,-0.0117 -0.07813,-0.0117 z"
           id="path285455"
           sodipodi:nodetypes="ccccccccccccccccc" />
        <path
           id="path303756"
           style="color:#000000;fill:#b0c3d3;fill-opacity:1;stroke-width:0.795549;stroke-linecap:round;stroke-linejoin:round;-inkscape-stroke:none"
           d="m -52.472769,259.46947 c -0.02713,-3.3e-4 -0.05414,0.004 -0.0801,0.0114 l -0.851628,0.26407 c -0.110814,0.0347 -0.186051,0.1376 -0.185517,0.25373 v 0.007 c 0.01931,-0.005 0.03907,-0.007 0.05891,-0.007 h 0.851628 c 0.02643,-1.2e-4 0.05273,0.004 0.07803,0.0114 l 0.853694,0.20618 c 0.110818,0.0347 0.186056,0.13761 0.185518,0.25374 v 0.93534 c 0.0064,-10e-4 0.0128,-0.002 0.01913,-0.004 l 0.853694,-0.26562 c 0.110267,-0.0345 0.185372,-0.13663 0.185517,-0.25218 v -0.88469 c 3.68e-4,-0.11567 -0.160896,0.018 -0.185517,-0.25373 l -0.853694,-0.26407 c -0.02529,-0.008 -0.0516,-0.0115 -0.07803,-0.0114 z"
           sodipodi:nodetypes="ccccccccccccccccccc" />
        <path
           style="color:#000000;fill:#b0c3d3;stroke-width:0.795549;stroke-linecap:round;stroke-linejoin:round;-inkscape-stroke:none"
           d="m -54.230469,258.82422 a 0.26460996,0.26460996 0 0 0 -0.263672,0.26367 v 2.64648 A 0.26460996,0.26460996 0 0 0 -54.230469,262 h 0.375 c 0.435245,0 0.792969,-0.35968 0.792969,-0.79492 v -1.58789 c 0,-0.43524 -0.357724,-0.79297 -0.792969,-0.79297 z"
           id="path285263" />
        <path
           style="color:#000000;fill:#c8dae5;stroke-width:0.795549;stroke-linecap:round;stroke-linejoin:round;-inkscape-stroke:none"
           d="m -58.925781,259.61719 c -0.42389,0 -0.75,0.37159 -0.75,0.79492 0,0.42333 0.32611,0.79297 0.75,0.79297 h 0.572265 a 0.26460996,0.26460996 0 0 0 0.265625,-0.25977 l 0.01367,-1.05859 a 0.26460996,0.26460996 0 0 0 -0.263672,-0.26953 z"
           id="path284477" />
        <path
           style="color:#000000;fill:#3a4d5c;stroke-width:0.795549;stroke-linecap:round;stroke-linejoin:round;-inkscape-stroke:none"
           d="m -57.867187,259.2207 c -0.423872,0 -0.750001,0.37161 -0.75,0.79492 v 0.79297 c 0,0.42331 0.326122,0.79297 0.75,0.79297 h 0.484375 a 0.26460996,0.26460996 0 0 0 0.263671,-0.26367 v -1.85156 a 0.26460996,0.26460996 0 0 0 -0.263671,-0.26563 z"
           id="path284669" />
        <path
           id="path307551"
           style="color:#000000;fill:#97abba;fill-opacity:1;stroke-width:0.795549;stroke-linecap:round;stroke-linejoin:round;-inkscape-stroke:none"
           d="m -54.230282,258.82403 a 0.26460996,0.26460996 0 0 0 -0.264067,0.26407 v 2.64635 a 0.26460996,0.26460996 0 0 0 0.264067,0.26561 h 0.374653 c 0.153757,0 0.298074,-0.0452 0.420129,-0.12247 v -2.93161 c -0.122055,-0.0769 -0.266372,-0.12195 -0.420129,-0.12195 z" />
        <path
           style="color:#000000;fill:#3a4d5c;stroke-width:0.795549;stroke-linecap:round;stroke-linejoin:round;-inkscape-stroke:none"
           d="m -56.65625,258.03125 c -0.557833,0 -0.992187,0.48719 -0.992187,1.05664 v 2.64648 c 0,0.56945 0.43435,1.0586 0.992187,1.0586 h 0.244141 c 0.423889,0 0.748046,-0.36964 0.748047,-0.79297 v -3.17578 c 0,-0.42333 -0.324158,-0.79297 -0.748047,-0.79297 z"
           id="path284861" />
        <path
           style="color:#000000;fill:#3a4d5c;stroke-width:0.795549;stroke-linecap:round;stroke-linejoin:round;-inkscape-stroke:none"
           d="m -46.710937,259.2207 a 0.26460996,0.26460996 0 0 0 -0.265625,0.26563 v 1.85156 a 0.26460996,0.26460996 0 0 0 0.265625,0.26367 h 0.484375 c 0.423877,0 0.749999,-0.36966 0.75,-0.79297 v -0.79297 c 0,-0.42331 -0.326129,-0.79492 -0.75,-0.79492 z"
           id="path286223" />
        <path
           style="color:#000000;fill:#3a4d5c;stroke-width:0.795549;stroke-linecap:round;stroke-linejoin:round;-inkscape-stroke:none"
           d="m -47.681641,258.03125 c -0.423889,0 -0.75,0.36964 -0.75,0.79297 V 262 c 0,0.42333 0.326111,0.79297 0.75,0.79297 h 0.242188 c 0.557838,0 0.992187,-0.48915 0.992187,-1.0586 v -2.64648 c 0,-0.56945 -0.434354,-1.05664 -0.992187,-1.05664 z"
           id="path286031" />
        <path
           style="color:#000000;fill:#b0c3d3;stroke-width:0.795549;stroke-linecap:round;stroke-linejoin:round;-inkscape-stroke:none"
           d="m -50.240234,258.82422 c -0.435245,0 -0.792969,0.35773 -0.792969,0.79297 v 1.58789 c 0,0.43524 0.357724,0.79492 0.792969,0.79492 h 0.375 a 0.26460996,0.26460996 0 0 0 0.265625,-0.26563 v -2.64648 a 0.26460996,0.26460996 0 0 0 -0.265625,-0.26367 z"
           id="path285647" />
        <path
           id="path287801"
           style="color:#000000;fill:#143441;fill-opacity:1;stroke-width:0.795549;stroke-linecap:round;stroke-linejoin:round;-inkscape-stroke:none"
           d="m -47.681844,258.03131 c -0.423889,0 -0.749827,0.36939 -0.749827,0.79272 v 3.17603 c 0,0.42333 0.325938,0.79272 0.749827,0.79272 h 0.242361 c 0.03632,0 0.0723,-0.002 0.107487,-0.006 -0.02681,-0.0815 -0.04134,-0.16817 -0.04134,-0.25735 v -3.17604 c 0,-0.42333 0.325937,-0.79271 0.749826,-0.79271 h 0.04289 c -0.170056,-0.31294 -0.487082,-0.52917 -0.858864,-0.52917 z" />
        <path
           id="path293958"
           style="color:#000000;fill:#97abba;fill-opacity:1;stroke-width:0.795549;stroke-linecap:round;stroke-linejoin:round;-inkscape-stroke:none"
           d="m -50.240347,258.82403 c -0.152937,0 -0.295907,0.0447 -0.417544,0.12092 v 2.93367 c 0.121637,0.0765 0.264607,0.12144 0.417544,0.12144 h 0.375172 a 0.26460996,0.26460996 0 0 0 0.265617,-0.26561 v -2.64635 a 0.26460996,0.26460996 0 0 0 -0.265617,-0.26407 z" />
        <path
           style="color:#000000;fill:#3a4d5c;stroke-width:0.795549;stroke-linecap:round;stroke-linejoin:round;-inkscape-stroke:none"
           d="m -49.378906,257.10352 c -0.42389,0 -0.75,0.37159 -0.75,0.79492 v 5.02734 c 0,0.42333 0.32611,0.79297 0.75,0.79297 h 0.484375 c 0.557837,0 0.992187,-0.48915 0.992187,-1.05859 v -4.49805 c 0,-0.56945 -0.434354,-1.05859 -0.992187,-1.05859 z"
           id="path285839" />
        <path
           id="path310726"
           style="color:#000000;fill:#143441;fill-opacity:1;stroke-width:0.795549;stroke-linecap:round;stroke-linejoin:round;-inkscape-stroke:none"
           d="m -56.656493,258.03131 c -0.371755,0 -0.688281,0.21627 -0.858345,0.52917 h 0.04444 c 0.423889,0 0.747758,0.36939 0.747758,0.79272 v 3.17603 c 0,0.0892 -0.01415,0.17588 -0.04082,0.25735 0.03516,0.004 0.07068,0.006 0.106968,0.006 h 0.24443 c 0.423889,0 0.747758,-0.36939 0.747758,-0.79272 v -3.17603 c 0,-0.42333 -0.323869,-0.79272 -0.747758,-0.79272 z" />
        <path
           style="color:#000000;fill:#3a4d5c;stroke-width:0.795549;stroke-linecap:round;stroke-linejoin:round;-inkscape-stroke:none"
           d="m -55.201172,257.10352 c -0.557833,0 -0.992187,0.48914 -0.992187,1.05859 v 4.49805 c 0,0.56944 0.434349,1.05859 0.992187,1.05859 h 0.486328 c 0.42389,0 0.75,-0.36964 0.75,-0.79297 v -5.02734 c 0,-0.42333 -0.32611,-0.79492 -0.75,-0.79492 z"
           id="path285071" />
      </g>
      <g
         id="g1797"
         transform="translate(0,-0.52916672)"
         style="stroke-width:0.795549">
        <g
           id="g1793"
           style="stroke-width:0.795549">
          <path
             id="path7964"
             style="color:#000000;fill:#000000;stroke-width:0.795549;stroke-linecap:round;stroke-linejoin:round;-inkscape-stroke:none"
             d="m -56.271503,252.8709 c -0.526039,0 -0.941797,0.43511 -0.987536,0.96222 -0.07079,-0.0238 -0.146235,-0.0362 -0.225308,-0.0362 h -0.242364 c -0.557832,0 -0.992188,0.48889 -0.992188,1.05834 v 0.13281 h -0.220657 c -0.281477,0 -0.519631,0.16287 -0.648023,0.39636 h -0.41031 c -0.423892,0 -0.750343,0.3699 -0.750343,0.79323 0,0.42332 0.326451,0.79478 0.750343,0.79478 h 0.41031 c 0.128392,0.23349 0.366541,0.39636 0.648023,0.39636 h 0.220657 v 0.13281 c 0,0.56944 0.434351,1.05885 0.992188,1.05885 0.146328,-2.9e-4 0.264639,-0.11929 0.264067,-0.26562 -5.29e-4,-0.14552 -0.118546,-0.26327 -0.264067,-0.26355 -0.245851,0 -0.462502,-0.22239 -0.462502,-0.52968 v -2.64635 c 0,-0.3073 0.216648,-0.52917 0.462502,-0.52917 h 0.242364 c 0.111902,0 0.220657,0.10445 0.220657,0.26562 v 0.39636 c 5.29e-4,0.14532 0.118231,0.26298 0.263551,0.26355 0.146124,5.8e-4 0.265047,-0.11743 0.265615,-0.26355 v -0.39636 -0.66198 c 0,-0.3073 0.217165,-0.52968 0.463021,-0.52968 h 0.484209 c 0.111903,0 0.220657,0.10289 0.22066,0.26407 v 3.44113 c 5.29e-4,0.14552 0.118544,0.26327 0.264065,0.26355 0.146126,5.8e-4 0.265049,-0.11742 0.265617,-0.26355 v -1.98437 h 0.109038 c 0.149257,0 0.265615,0.11428 0.265615,0.26355 v 1.58801 c 5.29e-4,0.14552 0.118547,0.26327 0.264067,0.26355 0.112136,9e-5 0.212146,-0.0705 0.249598,-0.17621 l 0.568698,0.17053 c 0.02529,0.008 0.928627,0 0.928627,0 0.02712,3.4e-4 0.551645,-0.16485 0.551645,-0.16485 0.04678,0.39211 0.385252,0.70022 0.789099,0.70022 h 0.109556 v 0.92552 c 0,0.21166 0.07982,0.40777 0.212905,0.55294 0.0983,0.10763 0.265128,0.11549 0.373105,0.0176 0.108389,-0.0991 0.115347,-0.26748 0.0155,-0.37517 -0.04248,-0.0463 -0.07235,-0.11474 -0.07235,-0.19534 v -5.02708 c 0,-0.16118 0.108755,-0.26407 0.220657,-0.26407 h 0.484209 c 0.245856,0 0.463021,0.22238 0.463021,0.52968 v 2.64635 c 5.29e-4,0.14613 0.119491,0.26413 0.265615,0.26355 0.14532,-5.5e-4 0.262985,-0.11823 0.263552,-0.26355 v -1.98437 c 0,-0.16117 0.108754,-0.26562 0.220657,-0.26562 h 0.242364 c 0.245856,0 0.465087,0.22187 0.465087,0.52917 v 2.64635 c 2.64e-4,0.14552 0.118028,0.2635 0.263549,0.26407 0.14552,-5.6e-4 0.263268,-0.11855 0.263551,-0.26407 v -0.13281 h 0.220657 c 0.281525,0 0.520163,-0.16282 0.648539,-0.39636 h 0.498163 c 0.423889,0 0.749824,-0.37146 0.749824,-0.79478 0,-0.42333 -0.325935,-0.79323 -0.749824,-0.79323 h -0.498163 c -0.128378,-0.23355 -0.367019,-0.39636 -0.648539,-0.39636 h -0.220657 v -0.13281 c 0,-0.56945 -0.434353,-1.05834 -0.992187,-1.05834 h -0.242364 c -0.0789,0 -0.154141,0.0125 -0.224793,0.0362 -0.04573,-0.52711 -0.46201,-0.96222 -0.988052,-0.96222 h -0.484209 c -0.423889,0 -0.749826,0.36991 -0.749823,0.79324 v 0.92759 h -0.109556 c -0.403736,0 -0.742175,0.30774 -0.789099,0.6997 l -0.551646,-0.16459 c -0.02593,-0.008 -0.928626,0 -0.928626,0 -0.02646,4e-5 -0.558364,0.16717 -0.558364,0.16717 -0.04573,-0.3932 -0.384985,-0.70228 -0.789614,-0.70228 h -0.109038 v -0.92759 c 0,-0.42333 -0.326453,-0.79324 -0.750342,-0.79324 z m 5.070494,2.25 v 2.11511 h -0.109556 c -0.149257,0 -0.265615,-0.11429 -0.265615,-0.26355 1.9e-4,-0.59624 0,-1.0327 0,-1.58802 0,-0.14926 0.116358,-0.26355 0.265615,-0.26355 z m -7.51789,0.39635 v 1.3224 h -0.220657 c -0.111889,0 -0.22066,-0.10239 -0.22066,-0.26355 v -0.79478 c 0,-0.17857 0.118375,-0.26408 0.220655,-0.26408 z m 11.199318,0 h 0.220658 c 0.111897,0 0.220659,0.10291 0.220659,0.26407 v 0.79478 c 0,0.16116 -0.10877,0.26355 -0.220659,0.26355 h -0.220658 z m -5.980514,0.13126 h 0.769461 l 0.625287,0.19534 v 0.66921 l -0.625287,0.19379 h -0.769461 l -0.632519,-0.19586 v -0.66507 z m -3.500044,0.13281 c -0.146127,5.8e-4 -0.264123,0.11949 -0.263551,0.26562 v 1.58595 c -5.29e-4,0.14612 0.117424,0.26504 0.263551,0.26561 0.146934,5.9e-4 0.26619,-0.11868 0.265615,-0.26561 v -1.58595 c 5.3e-4,-0.14694 -0.118681,-0.26619 -0.265615,-0.26562 z m -2.99775,0.13281 h 0.308507 v 0.52917 h -0.308507 c -0.111906,0 -0.22066,-0.10445 -0.22066,-0.26562 0,-0.16118 0.108754,-0.26355 0.22066,-0.26355 z m 13.449308,0 h 0.396359 c 0.111903,0 0.220657,0.10237 0.220657,0.26355 0,0.16117 -0.108751,0.26562 -0.220657,0.26562 h -0.396359 z m -8.652703,1.71876 c -0.526415,0 -0.942295,0.43563 -0.987536,0.96325 -0.159026,-0.0471 -0.298427,-0.0357 -0.467673,-0.0357 -0.557831,0 -0.992187,0.48733 -0.992187,1.05678 v 0.13281 h -0.218591 c -0.280829,0 -0.518388,0.16316 -0.646988,0.39636 h -0.411345 c -0.423889,0 -0.750343,0.37145 -0.750343,0.79478 0,0.42333 0.326454,0.79324 0.750343,0.79324 h 0.41031 c 0.128418,0.23337 0.366623,0.39635 0.648023,0.39635 h 0.218591 v 0.13281 c 0,0.56945 0.43435,1.05834 0.992187,1.05834 h 0.24443 c 0.07832,0 0.153149,-0.0124 0.223243,-0.0357 0.04596,0.52687 0.46166,0.9617 0.987536,0.9617 h 0.486275 c 0.423891,0 0.750342,-0.36991 0.750342,-0.79324 v -0.92552 h 0.109038 c 0.403751,0 0.740886,-0.30954 0.787548,-0.70177 l 0.555265,0.16666 c 0.02593,0.008 0.930693,0 0.930693,0 0.02646,-4e-5 0.554744,-0.16614 0.554744,-0.16614 0.04692,0.39196 0.383471,0.70125 0.787032,0.70125 h 0.111623 v 0.92552 c 0,0.42333 0.325935,0.79324 0.749824,0.79324 h 0.484208 c 0.526048,0 0.942319,-0.43511 0.988055,-0.96222 0.07065,0.0236 0.145894,0.0362 0.224793,0.0362 h 0.242361 c 0.557839,0 0.992187,-0.48889 0.992187,-1.05834 v -0.13281 h 0.22066 c 0.281353,0 0.519589,-0.16304 0.648023,-0.39635 h 0.498676 c 0.423889,0 0.749827,-0.36991 0.749824,-0.79324 0,-0.42333 -0.325935,-0.79478 -0.749824,-0.79478 h -0.499195 c -0.12859,-0.23325 -0.366641,-0.39636 -0.647504,-0.39636 h -0.22066 v -0.13281 c 0,-0.56945 -0.434353,-1.05678 -0.992187,-1.05678 h -0.242361 c -0.0789,0 -0.154141,0.0126 -0.224793,0.0362 -0.04501,-0.52785 -0.461468,-0.96376 -0.988055,-0.96376 H -49.3789 c -0.423889,0 -0.749824,0.37145 -0.749824,0.79478 v 0.92553 h -0.111623 c -0.404037,0 -0.741264,0.30835 -0.787548,0.70073 l -0.554228,-0.16537 c -0.02529,-0.008 -0.930693,0 -0.930693,0 -0.02713,-3.4e-4 -0.555265,0.16537 -0.555265,0.16537 -0.04629,-0.39237 -0.383516,-0.70073 -0.787548,-0.70073 h -0.109038 v -0.92553 c 0,-0.42333 -0.326451,-0.79478 -0.750342,-0.79478 z m 0.486275,0.52916 c 0.111903,0 0.22066,0.10444 0.22066,0.26562 v 5.02708 c 0,0.16117 -0.108757,0.26407 -0.22066,0.26407 h -0.486275 c -0.245851,0 -0.463021,-0.22239 -0.463021,-0.52968 1.03e-4,-0.79393 0,-1.58633 0,-2.38074 -5.29e-4,-0.14532 -0.118229,-0.26298 -0.263549,-0.26355 -0.146127,-5.8e-4 -0.265049,0.11743 -0.265618,0.26355 v 1.72083 c 0,0.16117 -0.106688,0.26355 -0.218591,0.26355 h -0.24443 c -0.245848,0 -0.462502,-0.22187 -0.462502,-0.52917 v -2.64635 c 0,-0.3073 0.216649,-0.52762 0.462502,-0.52762 h 0.24443 c 0.111903,0 0.218591,0.10237 0.218591,0.26355 v 0.39688 c -5.29e-4,0.14693 0.118684,0.26619 0.265618,0.26562 0.146124,-5.9e-4 0.26412,-0.1195 0.263549,-0.26562 v -1.05885 c 0,-0.30731 0.217165,-0.52917 0.463021,-0.52917 z m 5.336109,0 h 0.484208 c 0.245856,0 0.463021,0.22186 0.463021,0.52917 v 2.64635 c 2.65e-4,0.14633 0.11929,0.26464 0.265618,0.26407 0.145521,-5.9e-4 0.263266,-0.11855 0.263549,-0.26407 v -1.98437 c 0,-0.16118 0.108757,-0.26355 0.22066,-0.26355 h 0.242361 c 0.245856,0 0.463021,0.22031 0.463021,0.52761 v 2.64635 c 0,0.3073 -0.21717,0.52917 -0.463021,0.52917 h -0.242361 c -0.111903,0 -0.22066,-0.10238 -0.22066,-0.26355 v -0.13281 c 5.29e-4,-0.14613 -0.117425,-0.26505 -0.263549,-0.26562 -0.146934,-5.8e-4 -0.266192,0.11869 -0.265618,0.26562 v 0.79272 c 0,0.30729 -0.21717,0.52968 -0.463021,0.52968 H -49.3789 c -0.111903,0 -0.220658,-0.10289 -0.220658,-0.26407 v -5.02708 c 0,-0.16118 0.108755,-0.26562 0.220658,-0.26562 z m -4.585767,1.72083 h 0.109038 c 0.149256,0 0.265618,0.11429 0.265618,0.26355 -1.9e-5,0.5293 0,1.05843 0,1.58802 0,0.14925 -0.116362,0.26561 -0.265618,0.26561 h -0.109038 z m 3.835935,0 v 2.11718 h -0.111623 c -0.149256,0 -0.263548,-0.11635 -0.263548,-0.26561 1.03e-4,-0.5295 0,-1.05981 0,-1.58802 0,-0.1446 0.10719,-0.2567 0.249597,-0.26355 z m -7.519938,0.39636 v 1.3224 h -0.21859 c -0.11189,0 -0.220658,-0.10292 -0.220658,-0.26407 v -0.79272 c 0,-0.15612 0.102209,-0.25933 0.210323,-0.26561 z m 11.201374,0 h 0.22066 c 0.111895,0 0.220657,0.10445 0.220657,0.26561 v 0.79272 c 0,0.16115 -0.10877,0.26407 -0.220657,0.26407 h -0.22066 z m -5.986198,0.13281 h 0.77153 l 0.628902,0.1943 v 0.66817 l -0.628902,0.19586 h -0.77153 l -0.628901,-0.19586 v -0.66817 z m -6.49211,0.26355 h 0.308509 v 0.52916 h -0.308509 c -0.111906,0 -0.220658,-0.10238 -0.220658,-0.26355 0,-0.16117 0.108752,-0.26561 0.220658,-0.26561 z m 13.448792,0 h 0.396875 c 0.111903,0 0.22066,0.10444 0.220657,0.26561 0,0.16117 -0.108751,0.26355 -0.220657,0.26355 h -0.396875 z"
             sodipodi:nodetypes="scssscscssscscscscssssscsccssscccccssccccccscscccssssscscssssccccscssscscssscssscsccccscsssccsccccccssccccsssscccccccccccsccsccssccssscsssccsccscscssscscssscssscsccccscssscssscscssscscssscssscsccccscssscssssccscsssssssscscsccssscscsssssssscscsssssscsccsccccsccccccssscccsssscccccccccccsccssscssscc" />
        </g>
      </g>
    </g>
  </g>
</svg>
